<svg width="401" height="240" viewBox="0 0 401 240" fill="none" xmlns="http://www.w3.org/2000/svg">
<rect width="400.05" height="240" fill="#9CD7F8"/>
<path d="M61.2751 132.697C59.6029 133.127 57.8509 132.841 56.3426 131.891C54.8344 130.94 53.745 129.441 53.2814 127.671C52.8176 125.899 53.0315 124.064 53.8873 122.507C54.74 120.951 56.1326 119.854 57.8048 119.424C59.477 118.994 61.229 119.28 62.7373 120.23L61.3978 122.671C60.521 122.118 59.5025 121.951 58.5311 122.202C57.5597 122.452 56.7524 123.089 56.2549 123.992C55.7573 124.896 55.632 125.964 55.9032 126.993C56.1712 128.023 56.8051 128.895 57.6819 129.447C58.5586 129.999 59.5772 130.166 60.5485 129.916C61.5199 129.666 62.3272 129.029 62.8247 128.125L65.1926 129.614C64.3399 131.17 62.9474 132.267 61.2751 132.697Z" fill="#1E2122"/>
<path d="M81.2609 121.287C93.0268 120.149 102.266 116.175 101.896 112.411C101.527 108.648 91.6897 106.519 79.9238 107.658C68.1579 108.796 58.9191 112.769 59.2883 116.533C59.6575 120.297 69.495 122.425 81.2609 121.287Z" fill="#1E2122"/>
<path d="M100.922 132.748C96.8386 137.508 90.4024 140.489 82.9802 141.16C82.9021 140.396 82.8059 139.64 82.647 138.887C82.4585 137.994 81.968 137.139 81.251 136.609C80.643 135.069 78.4178 134.456 76.9405 135.171C76.3203 134.278 75.0101 133.709 74.0091 133.849C73.8474 133.871 73.6871 133.908 73.5275 133.952C73.4732 133.751 73.4123 133.548 73.3426 133.352C73.3206 133.288 73.2924 133.225 73.2641 133.162C64.7245 135.197 58.9352 138.539 59.2502 141.75C59.6729 146.059 70.936 148.495 84.4102 147.192C97.8845 145.889 108.462 141.34 108.04 137.031C107.849 135.088 105.458 133.527 101.656 132.518C101.388 132.447 101.103 132.534 100.922 132.745L100.922 132.748Z" fill="#1E2122"/>
<path d="M72.9819 113.378C72.9627 113.311 71.1252 106.787 67.6781 102.265C65.8947 99.9236 65.1887 97.9309 65.5836 96.3345C65.8068 95.4292 66.3743 94.7247 67.1815 94.3438C67.284 94.2964 67.3903 94.2549 67.4968 94.2165C68.6961 93.8163 70.1217 94.2124 71.126 95.23C73.1346 97.2653 78.2931 105.226 77.1374 112.882L76.9946 113.836L73.5541 115.452L72.9785 113.375L72.9819 113.378Z" fill="#1E2122"/>
<path d="M74.0821 114.317L73.7642 113.165C73.745 113.098 71.8748 106.434 68.3266 101.781C66.7205 99.672 66.0442 97.8544 66.3741 96.5266C66.5389 95.8612 66.9514 95.3435 67.533 95.0718C68.473 94.6311 69.6863 94.9197 70.5506 95.7948C72.4855 97.7529 77.4503 105.41 76.3408 112.765L76.2604 113.295L74.0821 114.317Z" fill="#1E2122"/>
<path d="M74.7409 112.898C74.7409 112.898 72.8459 106.046 69.1345 101.174C65.4203 96.3061 68.2476 94.8959 69.8258 96.4951C71.404 98.0943 76.4101 105.498 75.3375 112.618L74.7377 112.898L74.7409 112.898Z" fill="white"/>
<path d="M82.6563 113.821L82.0907 113.036C77.5525 106.739 78.4943 97.3206 79.3499 94.6054C79.7564 93.3201 80.7369 92.3603 81.9155 92.1027C82.0945 92.0635 82.2749 92.0398 82.4572 92.0347C83.3496 92.0077 84.1775 92.3835 84.7917 93.086C85.875 94.3303 86.1622 96.4228 85.6482 99.311C84.651 104.888 86.0057 111.533 86.0214 111.597L86.4615 113.706L82.656 113.818L82.6563 113.821Z" fill="#1E2122"/>
<path d="M83.0652 113.009L82.7515 112.574C78.3918 106.522 79.2994 97.4627 80.1239 94.8473C80.4914 93.6782 81.4396 92.8714 82.48 92.8426C83.1242 92.824 83.728 93.0997 84.1791 93.6182C85.0813 94.6551 85.3141 96.578 84.8508 99.1803C83.826 104.925 85.2125 111.702 85.2288 111.772L85.4727 112.941L84.266 112.977L83.0655 113.012L83.0652 113.009Z" fill="#1E2122"/>
<path d="M84.2362 111.97C84.2362 111.97 82.7784 105.013 83.8527 99.0007C84.9269 92.9886 81.7618 93.0106 81.0885 95.143C80.4155 97.2784 79.3521 106.131 83.5729 111.987L84.2359 111.967L84.2362 111.97Z" fill="white"/>
<path d="M81.8753 131.693C75.366 132.323 69.5812 127.84 68.9785 121.696C68.3759 115.553 73.1806 110.045 79.6898 109.415C86.199 108.786 91.9839 113.269 92.5865 119.413C93.1892 125.556 88.3845 131.064 81.8753 131.693Z" fill="#1E2122"/>
<path d="M81.7198 130.099C87.3493 129.554 91.4937 124.84 90.9767 119.57C90.4597 114.299 85.477 110.468 79.8475 111.013C74.218 111.557 70.0735 116.271 70.5905 121.542C71.1075 126.812 76.0903 130.643 81.7198 130.099Z" fill="white"/>
<mask id="mask0_604_218" style="mask-type:luminance" maskUnits="userSpaceOnUse" x="70" y="110" width="22" height="21">
<mask id="mask1_604_218" style="mask-type:luminance" maskUnits="userSpaceOnUse" x="68" y="109" width="25" height="23">
<path d="M81.8957 131.714C75.3979 132.332 69.613 127.829 68.9989 121.674C68.3848 115.519 73.1708 110.011 79.6686 109.393C86.1664 108.775 91.9513 113.278 92.5654 119.433C93.1795 125.588 88.3934 131.096 81.8957 131.714Z" fill="white"/>
</mask>
<g mask="url(#mask1_604_218)">
<path d="M81.7333 130.112C87.3547 129.576 91.4861 124.862 90.961 119.583C90.4358 114.305 85.4531 110.46 79.8317 110.996C74.2103 111.532 70.079 116.246 70.6041 121.525C71.1292 126.804 76.1119 130.649 81.7333 130.112Z" fill="white"/>
</g>
</mask>
<g mask="url(#mask0_604_218)">
<path opacity="0.1" d="M65.2593 112.392C65.2593 112.392 79.6307 119.473 100.766 110.738L100.963 117.896L59.9851 121.829L63.9723 115.787" fill="#1E2122"/>
</g>
<path d="M101.587 122.034C101.587 122.034 99.4921 124.194 100.725 126.929C100.725 126.929 98.5452 124.854 95.7846 126.077C97.8796 123.916 96.6469 121.181 96.6469 121.181C98.8268 123.259 101.587 122.034 101.587 122.034Z" fill="white"/>
<path d="M95.3093 128.108C95.3093 128.108 94.7848 129.155 95.567 130.028C95.567 130.028 94.5108 129.509 93.6288 130.285C94.1532 129.238 93.371 128.364 93.371 128.364C94.4273 128.883 95.3093 128.108 95.3093 128.108Z" fill="white"/>
<path d="M101.424 138.917C101.424 138.917 100.252 138.79 99.6945 139.821C99.6945 139.821 99.8232 138.66 98.7826 138.108C99.9549 138.235 100.512 137.203 100.512 137.203C100.384 138.365 101.424 138.917 101.424 138.917Z" fill="white"/>
<path d="M102.826 133.087C102.826 133.087 101.447 134.323 102.086 136.05C102.086 136.05 100.839 134.684 99.0956 135.318C100.475 134.083 99.8355 132.355 99.8355 132.355C101.082 133.721 102.826 133.087 102.826 133.087Z" fill="white"/>
<path d="M92.0982 125.128C92.0982 125.128 90.2888 125.958 90.3844 127.929C90.3844 127.929 89.5467 126.136 87.5583 126.235C89.3678 125.404 89.2722 123.434 89.2722 123.434C90.1098 125.226 92.0985 125.131 92.0985 125.131L92.0982 125.128Z" fill="white"/>
<path d="M100.792 112.675L100.947 112.042C100.947 112.042 87.1236 115.343 80.1963 116.048C67.9519 117.295 59.4957 115.917 59.4957 115.917L60.3628 116.586L59.2865 116.537L59.8309 122.087C60.9746 133.745 71.4391 142.273 83.2057 141.135C94.9722 139.997 103.583 129.624 102.439 117.965L101.895 112.416L100.789 112.676L100.792 112.675Z" fill="#1E2122"/>
<path d="M211.718 142.546C211.764 144.321 209.747 145.208 205.668 145.208C201.543 145.208 199.343 144.389 199.068 142.751C198.06 136.834 197.556 129.712 197.556 121.383C197.556 112.918 198.083 107.593 199.137 105.409C199.778 103.452 201.405 102.473 204.018 102.473C205.164 102.473 206.195 102.701 207.112 103.156C208.257 103.702 208.876 104.476 208.968 105.477C208.968 106.069 209.014 106.433 209.105 106.569C209.243 106.842 209.587 107.002 210.137 107.047C211.099 107.138 211.947 106.842 212.68 106.16C213.551 105.295 214.491 104.658 215.499 104.248C217.241 103.52 219.005 103.156 220.793 103.156C224.139 103.156 227.026 104.271 229.455 106.501C231.93 108.686 233.145 111.416 233.099 114.693C233.465 117.879 233.649 121.542 233.649 125.684C233.649 133.831 233.099 139.747 231.999 143.433C231.311 144.708 229.295 145.345 225.949 145.345C222.924 145.345 221.228 144.594 220.861 143.092C220.449 142.637 220.243 141.158 220.243 138.655C220.243 137.608 220.266 136.038 220.311 133.944C220.403 131.805 220.449 130.212 220.449 129.166C220.449 121.929 219.326 118.493 217.08 118.857C216.622 118.948 215.43 119.176 213.505 119.54C212.359 119.768 211.672 120.723 211.443 122.407C211.351 122.862 211.305 124.159 211.305 126.298C211.305 125.525 211.443 130.941 211.718 142.546Z" fill="white"/>
<path d="M174.9 106.842C174.625 109.345 174.236 112.144 173.731 115.239C173.136 118.788 172.838 121.451 172.838 123.226C172.838 126.821 174.075 128.664 176.55 128.755C179.025 128.847 180.263 126.89 180.263 122.885C180.263 120.928 179.965 118.197 179.369 114.692C178.681 110.596 178.292 108.048 178.2 107.047C178.063 105.545 178.819 104.407 180.469 103.633C181.752 103.042 183.242 102.746 184.938 102.746C186.817 102.746 188.512 103.11 190.025 103.838C191.812 104.703 192.912 105.932 193.325 107.524C194.058 110.437 194.425 113.805 194.425 117.628C194.425 121.724 193.898 126.207 192.844 131.077C191.423 137.539 189.521 141.385 187.137 142.614C185.992 144.389 182.371 145.276 176.275 145.276C169.813 145.276 166.123 144.32 165.207 142.409C162.457 140.452 160.417 136.925 159.088 131.828C158.125 128.05 157.644 123.909 157.644 119.403C157.644 115.489 158.102 111.643 159.019 107.866C159.432 106.091 160.486 104.748 162.182 103.838C163.694 103.019 165.527 102.609 167.681 102.609C169.24 102.609 170.706 102.837 172.081 103.292C174.006 103.975 174.969 104.93 174.969 106.159C174.969 106.296 174.946 106.523 174.9 106.842Z" fill="white"/>
<path d="M122.162 101.448C122.575 99.1273 124.66 97.4206 128.419 96.3284C131.031 95.5547 133.896 95.1678 137.012 95.1678C140.541 95.1678 143.933 95.6229 147.187 96.5332C148.975 97.0338 150.441 98.8315 151.587 101.926C152.412 104.156 152.802 106.022 152.756 107.524C152.71 109.845 151.839 112.03 150.143 114.078C148.631 115.898 146.706 117.332 144.368 118.379C146.981 119.425 149.57 121.132 152.137 123.499C154.475 126.229 155.643 129.21 155.643 132.442C155.643 136.128 154.337 139.2 151.725 141.658C150.945 142.431 149.02 143.228 145.95 144.047C143.108 144.866 141 145.276 139.625 145.276C135.408 145.276 132.36 145.094 130.481 144.73C127.273 144.093 125.096 142.841 123.95 140.975C121.842 137.516 120.787 129.665 120.787 117.423C120.787 109.049 121.246 103.724 122.162 101.448ZM133.369 108.002C133.369 109.003 133.712 109.845 134.4 110.528C135.133 111.165 136.004 111.484 137.012 111.484C138.021 111.484 138.891 111.165 139.625 110.528C140.358 109.845 140.725 109.003 140.725 108.002C140.725 107.046 140.335 106.25 139.556 105.613C138.823 104.93 137.975 104.589 137.012 104.589C136.05 104.589 135.202 104.93 134.469 105.613C133.735 106.25 133.369 107.046 133.369 108.002ZM134.056 130.803C134.056 131.759 134.537 132.533 135.5 133.124C136.279 133.579 137.196 133.807 138.25 133.807C139.258 133.807 140.198 133.557 141.068 133.056C141.985 132.51 142.443 131.759 142.443 130.803C142.443 129.802 141.871 128.801 140.725 127.799C139.579 126.798 138.502 126.298 137.493 126.298C136.485 126.298 135.66 126.798 135.019 127.799C134.377 128.755 134.056 129.756 134.056 130.803Z" fill="#1E2122"/>
<path d="M328.069 142.546C328.115 144.321 326.098 145.208 322.019 145.208C317.894 145.208 315.694 144.389 315.419 142.751C314.411 136.834 313.907 129.712 313.907 121.383C313.907 112.918 314.434 107.593 315.488 105.409C316.13 103.452 317.757 102.473 320.369 102.473C321.515 102.473 322.546 102.701 323.463 103.156C324.609 103.702 325.227 104.476 325.319 105.477C325.319 106.069 325.365 106.433 325.457 106.569C325.594 106.842 325.938 107.002 326.488 107.047C327.45 107.138 328.298 106.842 329.032 106.16C329.902 105.295 330.842 104.658 331.85 104.248C333.592 103.52 335.356 103.156 337.144 103.156C340.49 103.156 343.377 104.271 345.806 106.501C348.281 108.686 349.496 111.416 349.45 114.693C349.817 117.879 350 121.542 350 125.684C350 133.831 349.45 139.747 348.35 143.433C347.663 144.708 345.646 145.345 342.3 145.345C339.275 145.345 337.579 144.594 337.213 143.092C336.8 142.637 336.594 141.158 336.594 138.655C336.594 137.608 336.617 136.038 336.663 133.944C336.754 131.805 336.8 130.212 336.8 129.166C336.8 121.929 335.677 118.493 333.431 118.857C332.973 118.948 331.782 119.176 329.857 119.54C328.711 119.768 328.023 120.723 327.794 122.407C327.702 122.862 327.657 124.159 327.657 126.298C327.657 125.525 327.794 130.941 328.069 142.546Z" fill="white"/>
<path d="M291.251 106.842C290.976 109.345 290.587 112.144 290.083 115.239C289.487 118.788 289.189 121.451 289.189 123.226C289.189 126.821 290.426 128.664 292.901 128.755C295.376 128.847 296.614 126.89 296.614 122.885C296.614 120.928 296.316 118.197 295.72 114.692C295.033 110.596 294.643 108.048 294.551 107.047C294.414 105.545 295.17 104.407 296.82 103.633C298.103 103.042 299.593 102.746 301.289 102.746C303.168 102.746 304.864 103.11 306.376 103.838C308.164 104.703 309.264 105.932 309.676 107.524C310.409 110.437 310.776 113.805 310.776 117.628C310.776 121.724 310.249 126.207 309.195 131.077C307.774 137.539 305.872 141.385 303.489 142.614C302.343 144.389 298.722 145.276 292.626 145.276C286.164 145.276 282.474 144.32 281.558 142.409C278.808 140.452 276.768 136.925 275.439 131.828C274.477 128.05 273.995 123.909 273.995 119.403C273.995 115.489 274.454 111.643 275.37 107.866C275.783 106.091 276.837 104.748 278.533 103.838C280.045 103.019 281.879 102.609 284.033 102.609C285.591 102.609 287.058 102.837 288.433 103.292C290.358 103.975 291.32 104.93 291.32 106.159C291.32 106.296 291.297 106.523 291.251 106.842Z" fill="white"/>
<path d="M238.514 101.448C238.926 99.1273 241.012 97.4206 244.77 96.3284C247.382 95.5547 250.247 95.1678 253.363 95.1678C256.893 95.1678 260.284 95.6229 263.538 96.5332C265.326 97.0338 266.792 98.8315 267.938 101.926C268.763 104.156 269.153 106.022 269.107 107.524C269.061 109.845 268.19 112.03 266.495 114.078C264.982 115.898 263.057 117.332 260.72 118.379C263.332 119.425 265.922 121.132 268.488 123.499C270.826 126.229 271.994 129.21 271.994 132.442C271.994 136.128 270.688 139.2 268.076 141.658C267.297 142.431 265.372 143.228 262.301 144.047C259.459 144.866 257.351 145.276 255.976 145.276C251.759 145.276 248.711 145.094 246.832 144.73C243.624 144.093 241.447 142.841 240.301 140.975C238.193 137.516 237.139 129.665 237.139 117.423C237.139 109.049 237.597 103.724 238.514 101.448ZM249.72 108.002C249.72 109.003 250.063 109.845 250.751 110.528C251.484 111.165 252.355 111.484 253.363 111.484C254.372 111.484 255.243 111.165 255.976 110.528C256.709 109.845 257.076 109.003 257.076 108.002C257.076 107.046 256.686 106.25 255.907 105.613C255.174 104.93 254.326 104.589 253.363 104.589C252.401 104.589 251.553 104.93 250.82 105.613C250.086 106.25 249.72 107.046 249.72 108.002ZM250.407 130.803C250.407 131.759 250.888 132.533 251.851 133.124C252.63 133.579 253.547 133.807 254.601 133.807C255.609 133.807 256.549 133.557 257.42 133.056C258.336 132.51 258.795 131.759 258.795 130.803C258.795 129.802 258.222 128.801 257.076 127.799C255.93 126.798 254.853 126.298 253.845 126.298C252.836 126.298 252.011 126.798 251.37 127.799C250.728 128.755 250.407 129.756 250.407 130.803Z" fill="#1E2122"/>
<path d="M348.736 185.629C348.736 185.629 344.483 182.308 340.012 185.251C340.012 185.251 343.115 180.746 340.324 175.98C344.577 179.3 349.048 176.357 349.048 176.357C345.945 180.862 348.736 185.629 348.736 185.629Z" fill="#FFCCF7"/>
<path d="M370.294 166.184C370.294 166.184 362.185 168.015 360.786 176.694C360.786 176.694 359.023 168.065 350.851 166.535C358.96 164.703 360.36 156.024 360.36 156.024C362.123 164.653 370.294 166.184 370.294 166.184Z" fill="#FFCCF7"/>
</svg>
