<svg width="859" height="859" viewBox="0 0 859 859" fill="none" xmlns="http://www.w3.org/2000/svg">
<path fill-rule="evenodd" clip-rule="evenodd" d="M429.5 859C666.706 859 859 666.706 859 429.5C859 192.294 666.706 0 429.5 0C192.294 0 0 192.294 0 429.5C0 666.706 192.294 859 429.5 859ZM523.852 239.433C499.231 238.311 491.846 238.074 429.5 238.074C367.152 238.074 359.767 238.311 335.146 239.433C312.38 240.473 300.015 244.276 291.788 247.474C280.89 251.71 273.112 256.768 264.939 264.941C256.768 273.112 251.708 280.89 247.474 291.788C244.276 300.017 240.473 312.382 239.433 335.148C238.309 359.769 238.072 367.152 238.072 429.5C238.072 491.848 238.309 499.233 239.433 523.854C240.471 546.62 244.276 558.985 247.474 567.212C251.708 578.11 256.768 585.888 264.939 594.061C273.11 602.232 280.89 607.292 291.788 611.526C300.017 614.724 312.38 618.527 335.146 619.567C359.764 620.691 367.15 620.928 429.5 620.928C491.85 620.928 499.234 620.691 523.852 619.567C546.618 618.529 558.983 614.724 567.212 611.526C578.11 607.292 585.888 602.232 594.059 594.061C602.23 585.89 607.29 578.11 611.526 567.212C614.724 558.983 618.527 546.62 619.567 523.854C620.689 499.233 620.926 491.846 620.926 429.5C620.926 367.154 620.689 359.769 619.567 335.146C618.527 312.382 614.724 300.017 611.526 291.788C607.29 280.89 602.23 273.112 594.059 264.941C585.888 256.77 578.11 251.71 567.212 247.474C558.983 244.276 546.618 240.473 523.852 239.433ZM333.229 197.405C358.133 196.268 366.085 196 429.5 196C492.915 196 500.867 196.268 525.771 197.405C550.625 198.539 567.599 202.487 582.452 208.259C597.806 214.224 610.827 222.21 623.809 235.191C636.79 248.173 644.774 261.194 650.741 276.55C656.513 291.401 660.461 308.375 661.595 333.229C662.732 358.133 663 366.085 663 429.5C663 492.915 662.732 500.867 661.595 525.773C660.461 550.626 656.513 567.599 650.741 582.452C644.774 597.808 636.79 610.829 623.809 623.81C610.827 636.792 597.806 644.776 582.45 650.741C567.599 656.515 550.625 660.461 525.771 661.595C500.867 662.732 492.915 663 429.5 663C366.085 663 358.133 662.732 333.227 661.595C308.374 660.461 291.401 656.515 276.548 650.741C261.192 644.774 248.171 636.792 235.19 623.81C222.208 610.829 214.224 597.806 208.259 582.452C202.485 567.601 198.539 550.626 197.405 525.771C196.268 500.867 196 492.915 196 429.5C196 366.085 196.268 358.133 197.405 333.229C198.539 308.375 202.485 291.401 208.259 276.548C214.226 261.194 222.208 248.173 235.19 235.191C248.171 222.21 261.192 214.226 276.548 208.259C291.399 202.487 308.374 198.539 333.229 197.405ZM309.594 429.5C309.594 363.281 363.277 309.594 429.5 309.594C495.721 309.594 549.406 363.279 549.406 429.5C549.406 495.723 495.721 549.406 429.5 549.406C363.277 549.406 309.594 495.719 309.594 429.5ZM351.666 429.5C351.666 472.486 386.514 507.334 429.5 507.334C472.486 507.334 507.334 472.486 507.334 429.5C507.334 386.514 472.486 351.666 429.5 351.666C386.514 351.666 351.666 386.514 351.666 429.5ZM554.142 332.877C569.618 332.877 582.162 320.333 582.162 304.857C582.162 289.382 569.616 276.837 554.142 276.837C538.667 276.837 526.122 289.38 526.122 304.857C526.122 320.333 538.665 332.877 554.142 332.877Z" fill="black"/>
</svg>
