<svg width="859" height="859" viewBox="0 0 859 859" fill="none" xmlns="http://www.w3.org/2000/svg">
<path d="M429.5 0C192.291 0 0 192.291 0 429.5C0 666.709 192.291 859 429.5 859C666.709 859 859 666.709 859 429.5C859 192.291 666.709 0 429.5 0ZM324.362 607.519H237.388V327.628H324.362V607.519ZM280.338 293.268C252.868 293.268 235.107 273.806 235.107 249.736C235.107 225.174 253.405 206.294 281.457 206.294C309.508 206.294 326.688 225.174 327.225 249.736C327.225 273.806 309.508 293.268 280.338 293.268ZM642.013 607.519H555.039V452.407C555.039 416.302 542.423 391.785 510.971 391.785C486.946 391.785 472.674 408.383 466.365 424.355C464.039 430.037 463.457 438.09 463.457 446.098V607.474H376.439V416.883C376.439 381.942 375.32 352.727 374.157 327.583H449.722L453.704 366.462H455.449C466.902 348.208 494.954 321.275 541.886 321.275C599.108 321.275 642.013 359.617 642.013 442.027V607.519Z" fill="black"/>
</svg>
