<svg width="50" height="50" viewBox="0 0 50 50" fill="none" xmlns="http://www.w3.org/2000/svg">
<circle cx="25" cy="25" r="25" fill="black"/>
<path d="M12.0884 16.8525L23.6259 27.9475C23.9672 28.2759 24.4231 28.4709 24.9053 28.4947C25.3876 28.5185 25.8618 28.3694 26.2363 28.0763L26.3845 27.9475L37.9142 16.86C37.9515 16.9975 37.9766 17.1379 37.9896 17.2812L38 17.5V32.5C38.0002 33.1307 37.7525 33.7382 37.3065 34.2007C36.8604 34.6632 36.2491 34.9464 35.595 34.9938L35.4 35H14.6C13.9441 35.0002 13.3123 34.762 12.8313 34.3331C12.3503 33.9043 12.0557 33.3164 12.0065 32.6875L12 32.5V17.5C12 17.35 12.013 17.2042 12.039 17.0625L12.0884 16.8525ZM35.4 15C35.5577 15 35.7116 15.0129 35.8615 15.0388L36.0825 15.0875L25.0065 25.7375L13.9266 15.085C14.0705 15.0475 14.2178 15.0225 14.3686 15.01L14.6 15H35.4Z" fill="white"/>
</svg>
