<svg width="859" height="859" viewBox="0 0 859 859" fill="none" xmlns="http://www.w3.org/2000/svg">
<path d="M429.5 0C192.316 0 0 192.316 0 429.5C0 666.684 192.316 859 429.5 859C666.684 859 859 666.684 859 429.5C859 192.316 666.684 0 429.5 0ZM520.002 263.836H667.834V307.936H520.002V263.836ZM445.223 495.459C445.223 604.751 331.329 601.3 331.329 601.3H144.956V242.744H331.329C388.084 242.744 432.76 273.998 432.76 338.231C432.76 402.464 378.113 406.491 378.113 406.491C450.208 406.491 445.223 495.459 445.223 495.459ZM721.713 489.515H535.916C535.916 556.049 598.999 551.831 598.999 551.831C658.631 551.831 656.521 513.291 656.521 513.291H719.604C719.604 615.681 596.89 608.586 596.89 608.586C449.825 608.586 459.22 471.491 459.22 471.491C459.22 471.491 459.028 333.821 596.89 333.821C742.038 334.013 721.713 489.515 721.713 489.515Z" fill="black"/>
<path d="M595.744 386C540.728 386 533.113 442.284 533.113 442.284H649.999C649.999 442.284 650.761 386 595.744 386ZM330.561 442.284H227V540H325.421C340.269 539.609 368.063 535.31 368.063 492.51C368.063 441.698 330.561 442.284 330.561 442.284Z" fill="black"/>
<path d="M356 343.218C356 306 330.811 306 330.811 306H227V386H324.322C341.115 386 356 380.436 356 343.218Z" fill="black"/>
</svg>
